<svg xmlns="http://www.w3.org/2000/svg" version="1.1" xmlns:xlink="http://www.w3.org/1999/xlink" xmlns:svgjs="http://svgjs.dev/svgjs" width="1500" height="1215" viewBox="0 0 1500 1215"><g transform="matrix(1,0,0,1,-0.48975410261505203,-1.9596774193548754)"><svg viewBox="0 0 306 248" data-background-color="#fbcd08" preserveAspectRatio="xMidYMid meet" height="1215" width="1500" xmlns="http://www.w3.org/2000/svg" xmlns:xlink="http://www.w3.org/1999/xlink"><g id="tight-bounds" transform="matrix(1,0,0,1,0.09990983693347744,0.4000000000000057)"><svg viewBox="0 0 305.80034234768175 247.2" height="247.2" width="305.80034234768175"><g><svg viewBox="0 0 395.52000000000004 319.72673166217993" height="247.2" width="305.80034234768175"><g transform="matrix(1,0,0,1,0,192.6963596750937)"><svg viewBox="0 0 395.52000000000004 127.03037198708623" height="127.03037198708623" width="395.52000000000004"><g id="textblocktransform"><svg viewBox="0 0 395.52000000000004 127.03037198708623" height="127.03037198708623" width="395.52000000000004" id="textblock"><g><svg viewBox="0 0 395.52000000000004 72.60537110481587" height="72.60537110481587" width="395.52000000000004"><g transform="matrix(1,0,0,1,0,0)"><svg width="395.52000000000004" viewBox="4.65 -32.05 176.48 32.4" height="72.60537110481587" data-palette-color="#372e18"><path d="M8.75-32.05L8.5-10 8.7 0 4.65 0 4.9-9.65 4.65-32.05 8.75-32.05ZM25.25-25.15Q28.3-25.15 31.35-23.95L31.35-23.95 30.7-20.25 30.1-20.1Q28.7-21.2 27.45-21.73 26.2-22.25 24.85-22.25L24.85-22.25Q22.7-22.25 21.45-21.13 20.2-20 20.2-18.55L20.2-18.55Q20.2-17.1 21.42-16.2 22.65-15.3 25.2-14.2L25.2-14.2Q27.45-13.2 28.77-12.4 30.1-11.6 31.07-10.28 32.05-8.95 32.05-7.05L32.05-7.05Q32.05-5.1 31-3.43 29.95-1.75 27.92-0.73 25.9 0.3 23.1 0.3L23.1 0.3Q21.35 0.3 19.42-0.13 17.5-0.55 15.85-1.4L15.85-1.4 16.3-5.35 16.8-5.55Q18.2-4.15 20.07-3.38 21.95-2.6 23.55-2.6L23.55-2.6Q25.65-2.6 27-3.73 28.35-4.85 28.35-6.45L28.35-6.45Q28.35-7.95 27.12-8.85 25.9-9.75 23.3-10.95L23.3-10.95Q21.15-11.9 19.77-12.7 18.4-13.5 17.45-14.83 16.5-16.15 16.5-18.05L16.5-18.05Q16.5-20.05 17.57-21.65 18.65-23.25 20.62-24.2 22.6-25.15 25.25-25.15L25.25-25.15ZM55-3.35L55.3-3 54.95 0 39.15 0 39.4-9.65 39.15-32.05 43.25-32.05 43-10 43.15-3.35 55-3.35ZM68.49-3L75.14-3.2 75.44-2.9 75.09 0 59.94 0 60.09-7.5 59.94-24.9 75.19-24.9 75.44-24.6 75.14-21.7 68.84-21.9 63.64-21.85 63.59-14.3 68.54-14.25 72.89-14.4 73.14-14.05 72.84-11.1 68.24-11.25 63.59-11.2 63.54-7.8 63.59-3.05 68.49-3ZM105.64-24.9L108.19 0 104.84 0 104.29-7.6 102.94-19.1 102.64-19.1 95.49-2.8 92.54-2.8 85.79-19.1 85.49-19.1 84.19-7.9 83.49 0 80.29 0 83.04-24.9 87.39-24.9 88.64-21.15 94.09-7.75 94.39-7.75 100.09-21.35 101.39-24.9 105.64-24.9ZM124.34-24.95Q128.29-24.95 130.41-23.05 132.54-21.15 132.54-17.55L132.54-17.55Q132.54-13.35 129.86-10.98 127.19-8.6 122.49-8.6L122.49-8.6 119.44-8.6 119.44-7.8 119.54 0 115.84 0 115.99-7.5 115.84-24.9 124.34-24.95ZM123.69-11.5Q128.64-12.35 128.64-17.25L128.64-17.25Q128.64-19.6 127.31-20.75 125.99-21.9 123.34-22L123.34-22 119.54-21.95 119.49-11.6 123.69-11.5ZM148.94-25.2Q154.39-25.2 157.31-22 160.24-18.8 160.24-12.95L160.24-12.95Q160.24-6.6 157.11-3.13 153.99 0.35 148.19 0.35L148.19 0.35Q142.79 0.35 139.84-2.93 136.89-6.2 136.89-12.25L136.89-12.25Q136.89-18.45 140.04-21.83 143.19-25.2 148.94-25.2L148.94-25.2ZM148.59-22.05Q144.64-22.05 142.71-19.8 140.79-17.55 140.79-12.7L140.79-12.7Q140.79-7.5 142.69-5.15 144.59-2.8 148.49-2.8L148.49-2.8Q152.49-2.8 154.44-5.1 156.39-7.4 156.39-12.3L156.39-12.3Q156.39-17.35 154.46-19.7 152.54-22.05 148.59-22.05L148.59-22.05ZM174.33-25.15Q177.38-25.15 180.43-23.95L180.43-23.95 179.78-20.25 179.18-20.1Q177.78-21.2 176.53-21.73 175.28-22.25 173.93-22.25L173.93-22.25Q171.78-22.25 170.53-21.13 169.28-20 169.28-18.55L169.28-18.55Q169.28-17.1 170.51-16.2 171.73-15.3 174.28-14.2L174.28-14.2Q176.53-13.2 177.86-12.4 179.18-11.6 180.16-10.28 181.13-8.95 181.13-7.05L181.13-7.05Q181.13-5.1 180.08-3.43 179.03-1.75 177.01-0.73 174.98 0.3 172.18 0.3L172.18 0.3Q170.43 0.3 168.51-0.13 166.58-0.55 164.93-1.4L164.93-1.4 165.38-5.35 165.88-5.55Q167.28-4.15 169.16-3.38 171.03-2.6 172.63-2.6L172.63-2.6Q174.73-2.6 176.08-3.73 177.43-4.85 177.43-6.45L177.43-6.45Q177.43-7.95 176.21-8.85 174.98-9.75 172.38-10.95L172.38-10.95Q170.23-11.9 168.86-12.7 167.48-13.5 166.53-14.83 165.58-16.15 165.58-18.05L165.58-18.05Q165.58-20.05 166.66-21.65 167.73-23.25 169.71-24.2 171.68-25.15 174.33-25.15L174.33-25.15Z" opacity="1" transform="matrix(1,0,0,1,0,0)" fill="#372e18" class="wordmark-text-0" data-fill-palette-color="primary" id="text-0"></path></svg></g></svg></g><g transform="matrix(1,0,0,1,0,89.74575669375639)"><svg viewBox="0 0 395.52000000000004 37.284615293329836" height="37.284615293329836" width="395.52000000000004"><g transform="matrix(1,0,0,1,0,0)"><svg width="395.52000000000004" viewBox="1.959375 -37.8 536.190625 50.55" height="37.284615293329836" data-palette-color="#372e18"><path d="M11.1-17L11.1-2.45 15.85-1.5Q16-0.55 15.6 0.25L15.6 0.25Q14.7 0.2 13.35 0.15 12 0.1 10.65 0.05 9.3 0 8.35 0L8.35 0Q6.95 0 5.35 0.08 3.75 0.15 2.35 0.25L2.35 0.25Q2.2-0.7 2.45-1.5L2.45-1.5Q3.3-1.7 4.1-1.85 4.9-2 5.85-2.5L5.85-2.5 5.85-32.5 2-33.5Q1.85-34.45 2.25-35.25L2.25-35.25Q3.6-35.2 5.28-35.1 6.95-35 8.35-35L8.35-35 27.1-35Q27.15-34.5 27.15-34.02 27.15-33.55 27.15-33.05L27.15-33.05Q27.15-31.3 26.98-29.6 26.8-27.9 26.55-26.25L26.55-26.25Q26.05-26.05 25.7-26.05 25.35-26.05 24.75-26.1L24.75-26.1 23.5-32.75 11.1-32.75 11.1-19.75 18.95-19.75 19.9-24.15Q20.35-24.3 20.9-24.28 21.45-24.25 21.9-23.9L21.9-23.9Q21.8-22.8 21.75-21.4 21.7-20 21.7-18.55L21.7-18.55Q21.7-16.95 21.75-15.4 21.8-13.85 21.9-12.65L21.9-12.65Q21.45-12.45 20.9-12.45 20.35-12.45 19.9-12.55L19.9-12.55 18.95-17 11.1-17ZM38.25-24.95L38.25-2.5 41.6-1.5Q41.75-0.55 41.35 0.25L41.35 0.25Q40 0.15 38.57 0.08 37.15 0 35.75 0L35.75 0Q34.35 0 32.7 0.08 31.05 0.15 29.65 0.25L29.65 0.25Q29.5-0.7 29.75-1.5L29.75-1.5Q30.7-1.75 31.62-1.95 32.55-2.15 33.25-2.5L33.25-2.5 33.25-22 29.1-22.4Q28.95-23.4 29.35-24.15L29.35-24.15Q31.15-24.4 32.97-24.75 34.8-25.1 36.35-25.5L36.35-25.5Q36.85-25.45 37.3-25.33 37.75-25.2 38.25-24.95L38.25-24.95ZM34.9-30.05L34.9-30.05Q34.05-30.05 33.35-30.6 32.65-31.15 32.25-31.95 31.85-32.75 31.85-33.45L31.85-33.45Q31.85-34.1 32.4-34.77 32.95-35.45 33.77-35.93 34.6-36.4 35.4-36.4L35.4-36.4Q36.3-36.4 37-35.83 37.7-35.25 38.07-34.48 38.45-33.7 38.45-33L38.45-33Q38.45-32.35 37.92-31.65 37.4-30.95 36.57-30.5 35.75-30.05 34.9-30.05ZM52.3-25.05L52.15-21.65 52.2-21.6Q54.59-24 57.15-24.9 59.7-25.8 61.59-25.8L61.59-25.8Q64.84-25.8 66.72-23.95 68.59-22.1 68.59-18.55L68.59-18.55 68.65-2.5 72.15-1.5Q72.3-0.55 71.9 0.25L71.9 0.25Q70.55 0.15 69.05 0.08 67.55 0 66.15 0L66.15 0Q64.75 0 63.2 0.08 61.65 0.15 60.25 0.25L60.25 0.25Q60.09-0.7 60.34-1.5L60.34-1.5Q61.34-1.7 62.12-1.95 62.9-2.2 63.65-2.5L63.65-2.5 63.65-16.3Q63.65-19.7 62.59-21 61.55-22.3 59.25-22.3L59.25-22.3Q57.4-22.3 55.65-21.58 53.9-20.85 52.55-19.3L52.55-19.3 52.55-2.5 55.9-1.5Q56.05-0.55 55.65 0.25L55.65 0.25Q54.3 0.15 52.87 0.08 51.45 0 50.05 0L50.05 0Q48.65 0 47 0.08 45.34 0.15 43.95 0.25L43.95 0.25Q43.8-0.7 44.05-1.5L44.05-1.5Q44.95-1.75 45.84-1.98 46.75-2.2 47.55-2.5L47.55-2.5 47.55-22 43.4-22.4Q43.25-23.4 43.65-24.15L43.65-24.15Q45.5-24.45 47.25-24.8 49-25.15 50.59-25.5L50.59-25.5Q51.45-25.45 52.3-25.05L52.3-25.05ZM84.89 1L84.89 1Q82.09 1 79.77-0.68 77.44-2.35 76.07-5.3 74.69-8.25 74.69-12.05L74.69-12.05Q74.69-16.4 76.24-19.5 77.79-22.6 80.62-24.28 83.44-25.95 87.29-25.95L87.29-25.95Q88.69-25.95 90.12-25.6 91.54-25.25 92.64-24.7L92.64-24.7 92.79-24.7 92.79-34.3 88.64-34.7Q88.49-35.7 88.89-36.45L88.89-36.45Q92.49-37 95.64-37.8L95.64-37.8Q96.59-37.75 97.64-37.25L97.64-37.25 97.64-2.4Q98.09-2 99.14-1.75 100.19-1.5 101.14-1.4L101.14-1.4Q101.29-0.45 100.89 0.35L100.89 0.35Q100.09 0.5 98.97 0.6 97.84 0.7 96.69 0.7L96.69 0.7Q95.04 0.7 93.84 0.4L93.84 0.4Q93.44-0.25 93.22-0.9 92.99-1.55 92.89-2.25L92.89-2.25 92.64-2.25Q90.54-0.45 88.77 0.28 86.99 1 84.89 1ZM86.94-1.9L86.94-1.9Q88.89-1.9 90.29-2.73 91.69-3.55 92.64-4.55L92.64-4.55 92.64-21.95Q91.69-22.8 90.42-23.18 89.14-23.55 87.69-23.55L87.69-23.55Q83.79-23.55 81.89-20.55 79.99-17.55 79.99-12.5L79.99-12.5Q79.99-7.35 81.77-4.63 83.54-1.9 86.94-1.9ZM133.04-16.05L133.04-2.5 137.39-1.5Q137.54-0.55 137.14 0.25L137.14 0.25Q135.79 0.15 133.86 0.08 131.94 0 130.54 0L130.54 0Q129.14 0 127.11 0.08 125.09 0.15 123.69 0.25L123.69 0.25Q123.54-0.7 123.79-1.5L123.79-1.5Q124.79-1.65 125.79-1.83 126.79-2 127.79-2.5L127.79-2.5 127.79-15.05 117.04-32.5 113.19-33.5Q113.04-34.45 113.44-35.25L113.44-35.25Q114.79-35.2 116.69-35.1 118.59-35 119.99-35L119.99-35Q120.94-35 122.21-35.05 123.49-35.1 124.79-35.15 126.09-35.2 126.99-35.25L126.99-35.25Q127.14-34.3 126.89-33.5L126.89-33.5Q125.89-33.35 124.86-33.18 123.84-33 122.84-32.5L122.84-32.5 131.09-18.3 131.29-18.3 139.59-32.5 135.74-33.5Q135.59-34.45 135.99-35.25L135.99-35.25Q137.34-35.2 138.79-35.1 140.24-35 141.64-35L141.64-35Q143.09-35 144.34-35.1 145.59-35.2 146.99-35.25L146.99-35.25Q147.14-34.3 146.89-33.5L146.89-33.5Q145.84-33.35 144.71-33.15 143.59-32.95 142.64-32.5L142.64-32.5 133.04-16.05ZM148.39-12.5L148.39-12.5Q148.39-16.4 149.91-19.45 151.44-22.5 154.28-24.25 157.14-26 160.99-26L160.99-26Q164.89-26 167.71-24.25 170.54-22.5 172.06-19.45 173.59-16.4 173.59-12.5L173.59-12.5Q173.59-8.5 172.06-5.45 170.54-2.4 167.71-0.7 164.89 1 160.99 1L160.99 1Q157.14 1 154.28-0.7 151.44-2.4 149.91-5.45 148.39-8.5 148.39-12.5ZM168.19-11.8L168.19-11.8Q168.19-15.15 167.44-17.88 166.69-20.6 165.09-22.23 163.49-23.85 160.89-23.85L160.89-23.85Q158.24-23.85 156.66-22.25 155.09-20.65 154.44-18 153.78-15.35 153.78-12.15L153.78-12.15Q153.78-9.25 154.53-6.73 155.28-4.2 156.91-2.68 158.53-1.15 161.09-1.15L161.09-1.15Q163.78-1.15 165.34-2.65 166.89-4.15 167.54-6.6 168.19-9.05 168.19-11.8ZM200.53-24.95L200.53-2.4Q201.38-1.9 202.28-1.75 203.18-1.6 204.03-1.4L204.03-1.4Q204.18-0.5 203.78 0.35L203.78 0.35Q202.98 0.5 201.91 0.6 200.83 0.7 199.68 0.7L199.68 0.7Q198.08 0.7 196.88 0.4L196.88 0.4 196.03-3.3 195.78-3.3Q193.23-1 191.06-0.1 188.88 0.8 186.33 0.8L186.33 0.8Q182.73 0.8 181.16-1.2 179.58-3.2 179.58-6.7L179.58-6.7 179.58-22 175.93-22.4Q175.78-23.4 176.18-24.15L176.18-24.15Q177.98-24.4 179.56-24.75 181.13-25.1 182.68-25.5L182.68-25.5Q183.18-25.45 183.63-25.33 184.08-25.2 184.58-24.95L184.58-24.95 184.58-7.45Q184.58-5.35 185.21-4.35 185.83-3.35 186.88-3.03 187.93-2.7 189.28-2.7L189.28-2.7Q190.88-2.7 192.63-3.65 194.38-4.6 195.53-5.9L195.53-5.9 195.53-22 191.88-22.4Q191.73-23.4 192.13-24.15L192.13-24.15Q193.93-24.4 195.51-24.75 197.08-25.1 198.63-25.5L198.63-25.5Q199.13-25.45 199.58-25.33 200.03-25.2 200.53-24.95L200.53-24.95ZM214.88-16.85L214.88-2.5 219.73-1.5Q219.88-0.55 219.48 0.25L219.48 0.25Q218.58 0.2 217.26 0.15 215.93 0.1 214.63 0.05 213.33 0 212.38 0L212.38 0Q210.98 0 209.33 0.08 207.68 0.15 206.28 0.25L206.28 0.25Q206.13-0.7 206.38-1.5L206.38-1.5Q207.33-1.75 208.26-1.95 209.18-2.15 209.88-2.5L209.88-2.5 209.88-22 205.73-22.4Q205.58-23.4 205.98-24.15L205.98-24.15Q207.78-24.4 209.61-24.75 211.43-25.1 212.98-25.5L212.98-25.5Q213.48-25.45 213.81-25.33 214.13-25.2 214.63-24.95L214.63-24.95 214.63-20.4 214.68-20.35Q216.23-22.65 218.16-24.25 220.08-25.85 222.28-25.85L222.28-25.85Q223.13-25.85 223.96-25.73 224.78-25.6 225.58-25.1L225.58-25.1Q225.68-23.05 225.41-21.2 225.13-19.35 224.58-17.6L224.58-17.6Q224.23-17.55 223.48-17.57 222.73-17.6 222.33-17.8L222.33-17.8 221.63-22.8Q219.88-22.8 218.11-21.53 216.33-20.25 214.88-16.85L214.88-16.85ZM253.13 0.35L246.88 0Q245.48 0 243.45 0.08 241.43 0.15 240.03 0.25L240.03 0.25Q239.88-0.7 240.13-1.5L240.13-1.5Q241.18-1.65 242.18-1.9 243.18-2.15 244.13-2.5L244.13-2.5 244.13-32.5 240.28-33.5Q240.13-34.45 240.53-35.25L240.53-35.25Q241.88-35.2 243.55-35.1 245.23-35 246.63-35L246.63-35 253.13-35.2Q260.23-35.2 264.58-32.98 268.93-30.75 270.9-26.85 272.88-22.95 272.88-18L272.88-18Q272.88-12.85 271.23-9.33 269.58-5.8 266.78-3.68 263.98-1.55 260.45-0.6 256.93 0.35 253.13 0.35L253.13 0.35ZM249.38-32.75L249.38-2.25Q251.13-2.1 252.68-2.1L252.68-2.1Q258.08-2.1 261.3-3.83 264.53-5.55 265.93-9.08 267.33-12.6 267.33-18L267.33-18Q267.33-22.8 265.85-26.13 264.38-29.45 261-31.15 257.63-32.85 251.93-32.85L251.93-32.85Q251.33-32.85 250.7-32.83 250.08-32.8 249.38-32.75L249.38-32.75ZM285.22-16.85L285.22-2.5 290.07-1.5Q290.22-0.55 289.82 0.25L289.82 0.25Q288.92 0.2 287.6 0.15 286.27 0.1 284.97 0.05 283.67 0 282.72 0L282.72 0Q281.32 0 279.67 0.08 278.02 0.15 276.62 0.25L276.62 0.25Q276.47-0.7 276.72-1.5L276.72-1.5Q277.67-1.75 278.6-1.95 279.52-2.15 280.22-2.5L280.22-2.5 280.22-22 276.07-22.4Q275.92-23.4 276.32-24.15L276.32-24.15Q278.12-24.4 279.95-24.75 281.77-25.1 283.32-25.5L283.32-25.5Q283.82-25.45 284.15-25.33 284.47-25.2 284.97-24.95L284.97-24.95 284.97-20.4 285.02-20.35Q286.57-22.65 288.5-24.25 290.42-25.85 292.62-25.85L292.62-25.85Q293.47-25.85 294.3-25.73 295.12-25.6 295.92-25.1L295.92-25.1Q296.02-23.05 295.75-21.2 295.47-19.35 294.92-17.6L294.92-17.6Q294.57-17.55 293.82-17.57 293.07-17.6 292.67-17.8L292.67-17.8 291.97-22.8Q290.22-22.8 288.45-21.53 286.67-20.25 285.22-16.85L285.22-16.85ZM303.92-13.5L303.92-12.5Q303.92-7.45 305.95-4.67 307.97-1.9 311.47-1.9L311.47-1.9Q313.02-1.9 314.07-2.08 315.12-2.25 316.15-2.75 317.17-3.25 318.47-4.15L318.47-4.15Q319.27-3.8 319.37-2.95L319.37-2.95Q317.82-1.15 315.67-0.15 313.52 0.85 311.32 0.85L311.32 0.85Q307.52 0.85 304.67-0.75 301.82-2.35 300.22-5.35 298.62-8.35 298.62-12.5L298.62-12.5Q298.62-16.75 300.3-19.73 301.97-22.7 304.8-24.28 307.62-25.85 311.07-25.85L311.07-25.85Q315.52-25.85 317.65-22.88 319.77-19.9 319.77-15.2L319.77-15.2Q319.77-14.85 319.77-14.55 319.77-14.25 319.72-13.9L319.72-13.9 319.02-13.35 303.92-13.5ZM311.02-23.7L311.02-23.7Q309.57-23.7 308.15-22.8 306.72-21.9 305.62-20.1 304.52-18.3 304.12-15.55L304.12-15.55 315.02-16.15Q315.02-20 314.2-21.85 313.37-23.7 311.02-23.7ZM330.12 0.85L330.12 0.85Q327.12 0.85 325.07-0.73 323.02-2.3 323.02-5.5L323.02-5.5Q323.02-8 324.24-9.6 325.47-11.2 327.54-12.08 329.62-12.95 332.17-13.25 334.72-13.55 337.37-13.5L337.37-13.5 337.42-17.9Q337.47-20.7 336.37-22.23 335.27-23.75 333.02-23.75L333.02-23.75Q331.77-23.75 330.62-23.58 329.47-23.4 328.32-23L328.32-23 327.67-17.7Q327.27-17.5 326.57-17.48 325.87-17.45 325.47-17.5L325.47-17.5Q325.02-19.15 324.72-20.8 324.42-22.45 324.47-24L324.47-24Q326.82-25.1 329.19-25.55 331.57-26 334.37-26L334.37-26Q337.17-26 338.89-25.1 340.62-24.2 341.44-22 342.27-19.8 342.27-15.85L342.27-15.85 342.27-2.45Q343.12-2.05 344.02-1.88 344.92-1.7 345.77-1.45L345.77-1.45Q345.92-0.5 345.52 0.3L345.52 0.3Q344.72 0.45 343.59 0.55 342.47 0.65 341.32 0.65L341.32 0.65Q339.67 0.65 338.47 0.35L338.47 0.35 337.77-2.25 337.57-2.25Q336.32-0.95 334.47-0.05 332.62 0.85 330.12 0.85ZM332.02-1.9L332.02-1.9Q333.42-1.9 335.02-2.78 336.62-3.65 337.37-4.75L337.37-4.75 337.37-11.5Q332.22-11.5 330.12-10.28 328.02-9.05 328.02-6L328.02-6Q328.02-3.95 329.12-2.93 330.22-1.9 332.02-1.9ZM356.07-25.05L355.92-21.65 355.97-21.6Q358.27-24 360.67-24.9 363.07-25.8 364.87-25.8L364.87-25.8Q367.32-25.8 369.02-24.73 370.72-23.65 371.42-21.6L371.42-21.6Q373.57-24 375.67-24.9 377.77-25.8 379.87-25.8L379.87-25.8Q383.12-25.8 384.99-23.95 386.87-22.1 386.87-18.55L386.87-18.55 386.92-2.5 390.42-1.5Q390.57-0.55 390.17 0.25L390.17 0.25Q388.82 0.15 387.32 0.08 385.82 0 384.42 0L384.42 0Q383.02 0 381.47 0.08 379.92 0.15 378.52 0.25L378.52 0.25Q378.37-0.7 378.62-1.5L378.62-1.5Q379.62-1.7 380.39-1.95 381.17-2.2 381.92-2.5L381.92-2.5 381.92-16.3Q381.92-19.7 380.87-20.95 379.82-22.2 377.52-22.2L377.52-22.2Q376.42-22.2 374.92-21.48 373.42-20.75 371.87-18.95L371.87-18.95 371.87-18.55 371.92-2.5 375.42-1.5Q375.57-0.55 375.17 0.25L375.17 0.25Q373.82 0.15 372.32 0.08 370.82 0 369.42 0L369.42 0Q368.02 0 366.47 0.08 364.92 0.15 363.52 0.25L363.52 0.25Q363.37-0.7 363.62-1.5L363.62-1.5Q364.62-1.7 365.39-1.95 366.17-2.2 366.92-2.5L366.92-2.5 366.92-16.3Q366.92-19.7 365.87-21 364.82-22.3 362.52-22.3L362.52-22.3Q361.32-22.3 359.69-21.58 358.07-20.85 356.32-19.3L356.32-19.3 356.32-2.5 359.67-1.5Q359.82-0.55 359.42 0.25L359.42 0.25Q358.07 0.15 356.64 0.08 355.22 0 353.82 0L353.82 0Q352.42 0 350.77 0.08 349.12 0.15 347.72 0.25L347.72 0.25Q347.57-0.7 347.82-1.5L347.82-1.5Q348.72-1.75 349.62-1.98 350.52-2.2 351.32-2.5L351.32-2.5 351.32-22 347.17-22.4Q347.02-23.4 347.42-24.15L347.42-24.15Q349.27-24.45 351.02-24.8 352.77-25.15 354.37-25.5L354.37-25.5Q355.22-25.45 356.07-25.05L356.07-25.05ZM413.81-2.75L425.81-2.75 427.16-8.9Q427.76-9 428.11-8.97 428.46-8.95 428.96-8.75L428.96-8.75Q429.26-6.6 429.36-4.4 429.46-2.2 429.46 0L429.46 0 411.31 0Q409.91 0 407.99 0.08 406.06 0.15 404.66 0.25L404.66 0.25Q404.51-0.7 404.76-1.5L404.76-1.5Q405.86-1.75 406.84-1.95 407.81-2.15 408.56-2.5L408.56-2.5 408.56-32.5 404.71-33.5Q404.56-34.45 404.96-35.25L404.96-35.25Q406.31-35.2 407.99-35.1 409.66-35 411.06-35L411.06-35Q412.51-35 414.51-35.1 416.51-35.2 417.91-35.25L417.91-35.25Q418.06-34.3 417.81-33.5L417.81-33.5Q416.81-33.4 415.81-33.23 414.81-33.05 413.81-32.5L413.81-32.5 413.81-2.75ZM438.71 0.85L438.71 0.85Q435.71 0.85 433.66-0.73 431.61-2.3 431.61-5.5L431.61-5.5Q431.61-8 432.83-9.6 434.06-11.2 436.13-12.08 438.21-12.95 440.76-13.25 443.31-13.55 445.96-13.5L445.96-13.5 446.01-17.9Q446.06-20.7 444.96-22.23 443.86-23.75 441.61-23.75L441.61-23.75Q440.36-23.75 439.21-23.58 438.06-23.4 436.91-23L436.91-23 436.26-17.7Q435.86-17.5 435.16-17.48 434.46-17.45 434.06-17.5L434.06-17.5Q433.61-19.15 433.31-20.8 433.01-22.45 433.06-24L433.06-24Q435.41-25.1 437.78-25.55 440.16-26 442.96-26L442.96-26Q445.76-26 447.48-25.1 449.21-24.2 450.03-22 450.86-19.8 450.86-15.85L450.86-15.85 450.86-2.45Q451.71-2.05 452.61-1.88 453.51-1.7 454.36-1.45L454.36-1.45Q454.51-0.5 454.11 0.3L454.11 0.3Q453.31 0.45 452.18 0.55 451.06 0.65 449.91 0.65L449.91 0.65Q448.26 0.65 447.06 0.35L447.06 0.35 446.36-2.25 446.16-2.25Q444.91-0.95 443.06-0.05 441.21 0.85 438.71 0.85ZM440.61-1.9L440.61-1.9Q442.01-1.9 443.61-2.78 445.21-3.65 445.96-4.75L445.96-4.75 445.96-11.5Q440.81-11.5 438.71-10.28 436.61-9.05 436.61-6L436.61-6Q436.61-3.95 437.71-2.93 438.81-1.9 440.61-1.9ZM464.66-25.05L464.51-21.65 464.56-21.6Q466.86-24 469.26-24.9 471.66-25.8 473.46-25.8L473.46-25.8Q475.91-25.8 477.61-24.73 479.31-23.65 480.01-21.6L480.01-21.6Q482.16-24 484.26-24.9 486.36-25.8 488.46-25.8L488.46-25.8Q491.71-25.8 493.58-23.95 495.46-22.1 495.46-18.55L495.46-18.55 495.51-2.5 499.01-1.5Q499.16-0.55 498.76 0.25L498.76 0.25Q497.41 0.15 495.91 0.08 494.41 0 493.01 0L493.01 0Q491.61 0 490.06 0.08 488.51 0.15 487.11 0.25L487.11 0.25Q486.96-0.7 487.21-1.5L487.21-1.5Q488.21-1.7 488.98-1.95 489.76-2.2 490.51-2.5L490.51-2.5 490.51-16.3Q490.51-19.7 489.46-20.95 488.41-22.2 486.11-22.2L486.11-22.2Q485.01-22.2 483.51-21.48 482.01-20.75 480.46-18.95L480.46-18.95 480.46-18.55 480.51-2.5 484.01-1.5Q484.16-0.55 483.76 0.25L483.76 0.25Q482.41 0.15 480.91 0.08 479.41 0 478.01 0L478.01 0Q476.61 0 475.06 0.08 473.51 0.15 472.11 0.25L472.11 0.25Q471.96-0.7 472.21-1.5L472.21-1.5Q473.21-1.7 473.98-1.95 474.76-2.2 475.51-2.5L475.51-2.5 475.51-16.3Q475.51-19.7 474.46-21 473.41-22.3 471.11-22.3L471.11-22.3Q469.91-22.3 468.28-21.58 466.66-20.85 464.91-19.3L464.91-19.3 464.91-2.5 468.26-1.5Q468.41-0.55 468.01 0.25L468.01 0.25Q466.66 0.15 465.23 0.08 463.81 0 462.41 0L462.41 0Q461.01 0 459.36 0.08 457.71 0.15 456.31 0.25L456.31 0.25Q456.16-0.7 456.41-1.5L456.41-1.5Q457.31-1.75 458.21-1.98 459.11-2.2 459.91-2.5L459.91-2.5 459.91-22 455.76-22.4Q455.61-23.4 456.01-24.15L456.01-24.15Q457.86-24.45 459.61-24.8 461.36-25.15 462.96-25.5L462.96-25.5Q463.81-25.45 464.66-25.05L464.66-25.05ZM508.7-25.1L508.65-23.1 508.9-22.85Q510.9-24.6 512.8-25.3 514.7-26 516.4-26L516.4-26Q519.8-26 522.1-24.18 524.4-22.35 525.6-19.4 526.8-16.45 526.8-13.15L526.8-13.15Q526.8-6.2 523.38-2.63 519.95 0.95 514 0.95L514 0.95Q513.05 0.95 511.58 0.65 510.1 0.35 508.9-0.15L508.9-0.15 508.9 10 513.25 11Q513.4 11.95 513 12.75L513 12.75Q511.65 12.65 509.73 12.58 507.8 12.5 506.4 12.5L506.4 12.5Q505 12.5 503.35 12.58 501.7 12.65 500.3 12.75L500.3 12.75Q500.15 11.8 500.4 11L500.4 11Q501.25 10.8 502.15 10.58 503.05 10.35 503.9 10L503.9 10 503.9-22 499.8-22.4Q499.65-23.4 500.05-24.15L500.05-24.15Q500.45-24.2 502.3-24.53 504.15-24.85 506.95-25.5L506.95-25.5Q507.5-25.45 507.9-25.35 508.3-25.25 508.7-25.1L508.7-25.1ZM508.9-20.2L508.9-2.95Q509.85-2.3 511.03-1.83 512.2-1.35 513.9-1.35L513.9-1.35Q517.65-1.35 519.58-4.38 521.5-7.4 521.5-12.85L521.5-12.85Q521.5-18 519.73-20.5 517.95-23 514.9-23L514.9-23Q513.05-23 511.33-22.08 509.6-21.15 508.9-20.2L508.9-20.2ZM534.05-8.5L532.5-35Q532.75-35.35 533.6-35.6 534.45-35.85 535.1-35.85L535.1-35.85Q535.8-35.85 536.73-35.63 537.65-35.4 537.85-35L537.85-35 536.35-8.5Q535.85-8.35 535.28-8.33 534.7-8.3 534.05-8.5L534.05-8.5ZM531.85-2.5L531.85-2.5Q531.85-3.15 532.38-3.78 532.9-4.4 533.68-4.85 534.45-5.3 535.2-5.3L535.2-5.3Q536.55-5.3 537.35-4.17 538.15-3.05 538.15-2.05L538.15-2.05Q538.15-1.1 537.08-0.18 536 0.75 534.75 0.75L534.75 0.75Q533.55 0.75 532.7-0.38 531.85-1.5 531.85-2.5Z" opacity="1" transform="matrix(1,0,0,1,0,0)" fill="#372e18" class="slogan-text-1" data-fill-palette-color="secondary" id="text-1"></path></svg></g></svg></g></svg></g></svg></g><g transform="matrix(1,0,0,1,150.4838460792127,0)"><svg viewBox="0 0 94.55230784157467 175.55597408615318" height="175.55597408615318" width="94.55230784157467"><g><svg xmlns="http://www.w3.org/2000/svg" xmlns:xlink="http://www.w3.org/1999/xlink" version="1.1" x="8" y="0" viewBox="28.249 1.001 44.101 98.56099999999999" enable-background="new 0 0 100 100" xml:space="preserve" height="175.55597408615318" width="78.55230784157467" class="icon-icon-0" data-fill-palette-color="accent" id="icon-0"><g fill="#372e18" data-fill-palette-color="accent"><g fill="#372e18" data-fill-palette-color="accent"><path d="M50.319 99.562H50.68C50.619 99.562 50.56 99.559 50.499 99.559S50.38 99.562 50.319 99.562" fill="#372e18" data-fill-palette-color="accent"></path></g><g fill="#372e18" data-fill-palette-color="accent"><path d="M50.299 1.001C38.122 1.001 28.249 2.464 28.249 4.268V35.954C28.249 37.758 38.122 39.221 50.299 39.221S72.35 37.758 72.35 35.954V4.268C72.35 2.464 62.477 1.001 50.299 1.001" fill="#372e18" data-fill-palette-color="accent"></path><path d="M60.589 91.476C60.589 91.119 56.426 90.826 51.137 90.796 51.916 90.108 52.546 88.487 52.86 86.401 54.955 85.876 56.409 84.733 56.409 83.401S54.955 80.924 52.86 80.399C52.628 78.852 52.218 77.565 51.705 76.719 53.083 74.328 54.056 68.543 54.056 61.774 54.056 54.684 52.99 48.677 51.508 46.517A3.745 3.745 0 0 0 54.056 42.977 3.755 3.755 0 1 0 46.544 42.977C46.544 44.626 47.615 46.012 49.093 46.517 47.611 48.677 46.544 54.684 46.544 61.774 46.544 68.544 47.518 74.329 48.896 76.719 48.382 77.565 47.974 78.852 47.74 80.399 45.646 80.924 44.192 82.069 44.192 83.401S45.647 85.876 47.74 86.401C48.054 88.487 48.685 90.108 49.463 90.796 44.174 90.825 40.011 91.118 40.011 91.476V97.948C40.011 98.302 44.618 98.591 50.301 98.591 55.985 98.591 60.591 98.302 60.591 97.948V91.476z" fill="#372e18" data-fill-palette-color="accent"></path></g></g></svg></g></svg></g><g><rect width="105.62401725305354" height="6.5476272949752765" y="168.0083467911779" x="245.03615392078737" fill="#372e18" data-fill-palette-color="accent"></rect><rect width="105.62401725305354" height="6.5476272949752765" y="168.0083467911779" x="44.859828826159145" fill="#372e18" data-fill-palette-color="accent"></rect><rect width="105.62401725305354" height="6.5476272949752765" y="154.91309220122736" x="245.03615392078737" fill="#372e18" data-fill-palette-color="accent"></rect><rect width="105.62401725305354" height="6.5476272949752765" y="154.91309220122736" x="44.859828826159145" fill="#372e18" data-fill-palette-color="accent"></rect></g></svg></g><defs></defs></svg><rect width="305.80034234768175" height="247.2" fill="none" stroke="none" visibility="hidden"></rect></g></svg></g></svg>